<?xml version="1.0" encoding="utf-8"?>
<svg width="727" height="727" viewBox="0 0 727 727" fill="none" stroke="none" version="1.1" xmlns:xlink="http://www.w3.org/1999/xlink" xmlns="http://www.w3.org/2000/svg">
  <defs>
    <path id="path_1" d="M727 0L727 0L727 727L0 727L0 0L727 0Z" />
    <rect id="rect_2" x="0" y="0" width="727" height="727" />
    <clipPath id="clip_path_3">
      <use xlink:href="#rect_2" />
    </clipPath>
    <linearGradient id="gradient_4" gradientUnits="userSpaceOnUse" x1="262.5" y1="0" x2="262.5" y2="525">
      <stop offset="0" stop-color="#4500AC" />
      <stop offset="1" stop-color="#421881" />
    </linearGradient>
    <linearGradient id="gradient_5" gradientUnits="userSpaceOnUse" x1="0" y1="0" x2="525" y2="525">
      <stop offset="0" stop-color="#421881" />
      <stop offset="1" stop-color="#4500AC" />
    </linearGradient>
    <linearGradient id="gradient_6" gradientUnits="userSpaceOnUse" x1="0" y1="0" x2="248" y2="379">
      <stop offset="0" stop-color="#4500AC" />
      <stop offset="1" stop-color="#421881" />
    </linearGradient>
    <g id="group_7">
      <path id="Rectangle" d="M395 0C466.807 0 525 58.1932 525 130L525 395C525 466.807 466.807 525 395 525L130 525C58.1932 525 0 466.807 0 395L0 130C3.05176e-05 58.1932 58.1932 0 130 0L395 0Z" style="fill:url(#gradient_4);mix-blend-mode:normal;" transform="matrix(0.707 0.707 -0.707 0.707 363 0)" />
      <path id="Rectangle" d="M395 0C466.807 0 525 58.1932 525 130L525 395C525 466.807 466.807 525 395 525L130 525C58.1932 525 0 466.807 0 395L0 130C0 58.1932 58.1932 0 130 0L395 0Z" style="fill:url(#gradient_5);mix-blend-mode:normal;" transform="translate(101 109)" />
      <path id="Rectangle" d="M226 0C238.152 0 248 9.84808 248 22L248 357C248 369.152 238.152 379 226 379L22 379C9.84808 379 0 369.152 0 357L0 22C0 9.84808 9.84808 0 22 0L226 0Z" style="fill:url(#gradient_6);mix-blend-mode:normal;" />
    </g>
    <path id="path_8" d="M226 0C238.152 0 248 9.84808 248 22L248 357C248 369.152 238.152 379 226 379L22 379C9.84808 379 0 369.152 0 357L0 22C0 9.84808 9.84808 0 22 0L226 0Z" />
    <clipPath id="clip_path_9" transform="translate(239 182)">
      <use xlink:href="#path_8" />
    </clipPath>
    <filter color-interpolation-filters="sRGB" x="-246" y="-377" width="248" height="379" id="filter_10">
      <feFlood flood-opacity="0" result="BackgroundImageFix_1" />
      <feBlend mode="normal" in="SourceGraphic" in2="BackgroundImageFix_1" result="Shape_2" />
      <feGaussianBlur stdDeviation="9" />
    </filter>
  </defs>
  <g id="Frame" opacity="1" clip-path="url(#clip_path_3)">
    <g>
      <use xlink:href="#path_1" style="fill:#FFFFFF;fill-rule:evenodd;fill-opacity:0;mix-blend-mode:normal;" />
      <g>
        <path id="Rectangle" d="M395 0C466.807 0 525 58.1932 525 130L525 395C525 466.807 466.807 525 395 525L130 525C58.1932 525 0 466.807 0 395L0 130C3.05176e-05 58.1932 58.1932 0 130 0L395 0Z" style="fill:url(#gradient_4);mix-blend-mode:normal;" transform="matrix(0.707 0.707 -0.707 0.707 363 0)" />
        <path id="Rectangle" d="M395 0C466.807 0 525 58.1932 525 130L525 395C525 466.807 466.807 525 395 525L130 525C58.1932 525 0 466.807 0 395L0 130C0 58.1932 58.1932 0 130 0L395 0Z" style="fill:url(#gradient_5);mix-blend-mode:normal;" transform="translate(101 109)" />
        <path id="Rectangle" d="M226 0C238.152 0 248 9.84808 248 22L248 357C248 369.152 238.152 379 226 379L22 379C9.84808 379 0 369.152 0 357L0 22C0 9.84808 9.84808 0 22 0L226 0Z" style="fill:url(#gradient_6);mix-blend-mode:normal;" transform="translate(239 182)" />
        <use xlink:href="#group_7" clip-path="url(#clip_path_9)" style="filter:url(#filter_10);" />
        <line id="Line" x1="0" y1="0" x2="154.43" y2="0" style="fill:none;stroke-width:5;stroke:#808080;stroke-linecap:square;mix-blend-mode:normal;" transform="translate(285.886 418.75)" />
        <line id="Line" x1="0" y1="0" x2="130.282" y2="0.5" style="fill:none;stroke-width:5;stroke:#808080;stroke-linecap:square;mix-blend-mode:normal;" transform="translate(297.961 397.25)" />
        <line id="Line" x1="0" y1="0" x2="100.2" y2="0" style="fill:none;stroke-width:5;stroke:#808080;stroke-linecap:square;mix-blend-mode:normal;" transform="translate(313.002 374.25)" />
        <line id="Line" x1="0" y1="0" x2="166.203" y2="0" style="fill:none;stroke-width:5;stroke:#808080;stroke-linecap:square;mix-blend-mode:normal;" transform="translate(280 351.25)" />
        <line id="Line" x1="0" y1="0" x2="154.43" y2="0" style="fill:none;stroke-width:5;stroke:#808080;stroke-linecap:square;mix-blend-mode:normal;" transform="translate(285.886 328.25)" />
        <line id="Line" x1="0" y1="0" x2="166.203" y2="0" style="fill:none;stroke-width:5;stroke:#808080;stroke-linecap:square;mix-blend-mode:normal;" transform="translate(280 305.25)" />
      </g>
    </g>
  </g>
</svg>